<svg id="Capa_1" enable-background="new 0 0 512 512" height="512" viewBox="0 0 512 512" width="512" 
    xmlns="http://www.w3.org/2000/svg" fill="white">
    <g>
        <path d="m492 0h-312c-4.992 0-10.285 2.002-14.142 5.858l-160 160c-3.831 3.827-5.858 9.116-5.858 14.142v312c0 10.984 8.925 20 20 20h312c5.063 0 10.276-1.991 14.143-5.858l159.999-159.999c3.65-3.65 5.858-8.807 5.858-14.143v-312c0-10.941-8.95-20-20-20zm-332 68.284v91.716h-91.716zm-120 131.716h120v123.716l-120 120zm272 272h-243.715l120-120h123.715zm0-160h-112v-112h112zm11.716-152h-123.716v-120h243.716zm28.284 283.716v-91.716h91.716zm120-131.716h-120v-123.716l120-120z"/>
    </g>
</svg>